<svg version="1.2" baseProfile="tiny-ps" xmlns="http://www.w3.org/2000/svg" viewBox="0 0 252 75" width="252" height="75">
	<title>Logo DECIDE-svg</title>
	<style>
		tspan { white-space:pre }
		.shp0 { fill: #0f2b37 } 
		.shp1 { fill: #f4861f } 
		.shp2 { fill: #ffffff } 
	</style>
	<g id="g10">
		<g id="g12">
			<path id="path14" fill-rule="evenodd" class="shp0" d="M29 14.6C37.06 14.6 43.34 16.97 47.84 21.69C52.34 26.42 54.59 32.41 54.59 39.68C54.59 46.89 52.31 52.87 47.73 57.62C43.15 62.37 36.91 64.75 29 64.75L14 64.75L14 14.6L29 14.6ZM30.86 57.59C35.69 57.59 39.66 55.86 42.77 52.4C45.88 48.94 47.43 44.7 47.43 39.68C47.43 34.65 45.88 30.41 42.77 26.95C39.66 23.5 35.69 21.77 30.86 21.77L21.16 21.77L21.16 57.59L30.86 57.59Z" />
			<path id="path16" class="shp0" d="M91.01 21.77L69.52 21.77L69.52 36.1L87.43 36.1L87.43 43.26L69.52 43.26L69.52 57.59L91.01 57.59L91.01 64.75L62.35 64.75L62.35 14.6L91.01 14.6L91.01 21.77Z" />
			<path id="path18" class="shp0" d="M123.25 58.18C128.47 58.18 132.82 56.37 136.31 52.73L139.37 59.45C137.33 61.34 134.9 62.8 132.09 63.82C129.28 64.84 126.48 65.35 123.69 65.35C116.48 65.35 110.32 62.84 105.23 57.81C100.13 52.79 97.58 46.74 97.58 39.68C97.58 32.61 100.13 26.57 105.23 21.54C110.32 16.52 116.48 14.01 123.69 14.01C126.53 14.01 129.34 14.5 132.13 15.5C134.91 16.49 137.33 17.94 139.37 19.83L136.31 26.54C132.82 22.96 128.47 21.17 123.25 21.17C118.12 21.17 113.76 22.97 110.15 26.58C106.54 30.19 104.74 34.55 104.74 39.68C104.74 44.8 106.54 49.17 110.15 52.77C113.76 56.38 118.12 58.18 123.25 58.18" />
			<path id="path20" class="shp1" d="M153.1 65.35C151.6 65.35 150.33 64.82 149.29 63.78C148.25 62.73 147.72 61.47 147.72 59.97C147.72 58.48 148.25 57.21 149.29 56.17C150.33 55.12 151.6 54.6 153.1 54.6C154.64 54.6 155.92 55.12 156.94 56.17C157.96 57.21 158.47 58.48 158.47 59.97C158.47 61.47 157.96 62.73 156.94 63.78C155.92 64.82 154.64 65.35 153.1 65.35Z" />
			<path id="path22" class="shp0" d="M150.71 50.42L148.32 14.6L157.87 14.6L155.48 50.42L150.71 50.42" />
			<path id="path24" fill-rule="evenodd" class="shp0" d="M184.21 14.6C192.27 14.6 198.55 16.97 203.05 21.69C207.56 26.42 209.81 32.41 209.81 39.68C209.81 46.89 207.52 52.87 202.94 57.62C198.37 62.37 192.12 64.75 184.21 64.75L169.21 64.75L169.21 14.6L184.21 14.6ZM186.08 57.59C190.9 57.59 194.87 55.86 197.98 52.4C201.09 48.94 202.64 44.7 202.64 39.68C202.64 34.65 201.09 30.41 197.98 26.95C194.87 23.5 190.9 21.77 186.08 21.77L176.38 21.77L176.38 57.59L186.08 57.59Z" />
			<path id="path26" class="shp0" d="M246.22 21.77L224.73 21.77L224.73 36.1L242.64 36.1L242.64 43.26L224.73 43.26L224.73 57.59L246.22 57.59L246.22 64.75L217.57 64.75L217.57 14.6L246.22 14.6L246.22 21.77Z" />
			<path id="path28" fill-rule="evenodd" class="shp0" d="M312.67 14.6C320.73 14.6 327.01 16.97 331.52 21.69C336.02 26.42 338.27 32.41 338.27 39.68C338.27 46.89 335.98 52.87 331.4 57.62C326.83 62.37 320.58 64.75 312.67 64.75L297.67 64.75L297.67 14.6L312.67 14.6ZM314.54 57.59C319.36 57.59 323.33 55.86 326.44 52.4C329.55 48.94 331.11 44.7 331.11 39.68C331.11 34.65 329.55 30.41 326.44 26.95C323.33 23.5 319.36 21.77 314.54 21.77L304.84 21.77L304.84 57.59L314.54 57.59Z" />
			<path id="path30" class="shp0" d="M374.69 21.77L353.19 21.77L353.19 36.1L371.1 36.1L371.1 43.26L353.19 43.26L353.19 57.59L374.69 57.59L374.69 64.75L346.03 64.75L346.03 14.6L374.69 14.6L374.69 21.77Z" />
			<path id="path32" class="shp0" d="M406.92 58.18C412.14 58.18 416.5 56.37 419.98 52.73L423.04 59.45C421 61.34 418.57 62.8 415.76 63.82C412.95 64.84 410.15 65.35 407.37 65.35C400.15 65.35 394 62.84 388.9 57.81C383.8 52.79 381.25 46.74 381.25 39.68C381.25 32.61 383.8 26.57 388.9 21.54C394 16.52 400.15 14.01 407.37 14.01C410.2 14.01 413.01 14.5 415.8 15.5C418.59 16.49 421 17.94 423.04 19.83L419.98 26.54C416.5 22.96 412.14 21.17 406.92 21.17C401.8 21.17 397.43 22.97 393.83 26.58C390.22 30.19 388.41 34.55 388.41 39.68C388.41 44.8 390.22 49.17 393.83 52.77C397.43 56.38 401.8 58.18 406.92 58.18" />
			<path id="path34" class="shp0" d="M436.77 65.35C435.28 65.35 434.01 64.82 432.97 63.78C431.92 62.73 431.4 61.47 431.4 59.97C431.4 58.48 431.92 57.21 432.97 56.17C434.01 55.12 435.28 54.6 436.77 54.6C438.31 54.6 439.59 55.12 440.61 56.17C441.63 57.21 442.14 58.48 442.14 59.97C442.14 61.47 441.63 62.73 440.61 63.78C439.59 64.82 438.31 65.35 436.77 65.35Z" />
			<path id="path36" class="shp0" d="M434.38 50.42L431.99 14.6L441.55 14.6L439.16 50.42L434.38 50.42" />
			<path id="path38" fill-rule="evenodd" class="shp0" d="M467.89 14.6C475.95 14.6 482.23 16.97 486.73 21.69C491.23 26.42 493.48 32.41 493.48 39.68C493.48 46.89 491.19 52.87 486.62 57.62C482.04 62.37 475.8 64.75 467.89 64.75L452.89 64.75L452.89 14.6L467.89 14.6ZM469.75 57.59C474.58 57.59 478.55 55.86 481.66 52.4C484.76 48.94 486.32 44.7 486.32 39.68C486.32 34.65 484.76 30.41 481.66 26.95C478.55 23.5 474.58 21.77 469.75 21.77L460.05 21.77L460.05 57.59L469.75 57.59Z" />
			<path id="path40" class="shp0" d="M529.9 21.77L508.41 21.77L508.41 36.1L526.32 36.1L526.32 43.26L508.41 43.26L508.41 57.59L529.9 57.59L529.9 64.75L501.24 64.75L501.24 14.6L529.9 14.6L529.9 21.77Z" />
			<path id="path42" fill-rule="evenodd" class="shp2" d="M596.35 14.6C604.41 14.6 610.69 16.97 615.19 21.69C619.69 26.42 621.94 32.41 621.94 39.68C621.94 46.89 619.65 52.87 615.08 57.62C610.5 62.37 604.26 64.75 596.35 64.75L581.35 64.75L581.35 14.6C581.35 14.6 596.35 14.6 596.35 14.6ZM598.21 57.59C603.04 57.59 607.01 55.86 610.12 52.4C613.23 48.94 614.78 44.7 614.78 39.68C614.78 34.65 613.23 30.41 610.12 26.95C607.01 23.5 603.04 21.77 598.21 21.77L588.51 21.77L588.51 57.59L598.21 57.59Z" />
			<path id="path44" class="shp2" d="M658.36 21.77L636.87 21.77L636.87 36.1L654.78 36.1L654.78 43.26L636.87 43.26L636.87 57.59L658.36 57.59L658.36 64.75L629.7 64.75L629.7 14.6L658.36 14.6L658.36 21.77Z" />
			<path id="path46" class="shp2" d="M690.6 58.18C695.82 58.18 700.17 56.37 703.65 52.73L706.71 59.45C704.67 61.34 702.25 62.8 699.44 63.82C696.63 64.84 693.83 65.35 691.04 65.35C683.83 65.35 677.67 62.84 672.57 57.81C667.47 52.79 664.93 46.74 664.93 39.68C664.93 32.61 667.47 26.57 672.57 21.54C677.67 16.52 683.83 14.01 691.04 14.01C693.88 14.01 696.69 14.5 699.47 15.5C702.26 16.49 704.67 17.94 706.71 19.83L703.65 26.54C700.17 22.96 695.82 21.17 690.6 21.17C685.47 21.17 681.11 22.97 677.5 26.58C673.89 30.19 672.09 34.55 672.09 39.68C672.09 44.8 673.89 49.17 677.5 52.77C681.11 56.38 685.47 58.18 690.6 58.18" />
			<path id="path48" class="shp2" d="M720.45 65.35C718.95 65.35 717.68 64.82 716.64 63.78C715.59 62.73 715.07 61.47 715.07 59.97C715.07 58.48 715.59 57.21 716.64 56.17C717.68 55.12 718.95 54.6 720.45 54.6C721.99 54.6 723.27 55.12 724.29 56.17C725.31 57.21 725.82 58.48 725.82 59.97C725.82 61.47 725.31 62.73 724.29 63.78C723.27 64.82 721.99 65.35 720.45 65.35Z" />
			<path id="path50" class="shp2" d="M718.06 50.42L715.67 14.6L725.22 14.6L722.83 50.42L718.06 50.42" />
			<path id="path52" fill-rule="evenodd" class="shp2" d="M751.56 14.6C759.62 14.6 765.9 16.97 770.41 21.69C774.91 26.42 777.16 32.41 777.16 39.68C777.16 46.89 774.87 52.87 770.29 57.62C765.71 62.37 759.47 64.75 751.56 64.75L736.56 64.75L736.56 14.6L751.56 14.6ZM753.43 57.59C758.25 57.59 762.22 55.86 765.33 52.4C768.44 48.94 769.99 44.7 769.99 39.68C769.99 34.65 768.44 30.41 765.33 26.95C762.22 23.5 758.25 21.77 753.43 21.77L743.73 21.77L743.73 57.59L753.43 57.59Z" />
			<path id="path54" class="shp2" d="M813.57 21.77L792.08 21.77L792.08 36.1L809.99 36.1L809.99 43.26L792.08 43.26L792.08 57.59L813.57 57.59L813.57 64.75L784.92 64.75L784.92 14.6L813.57 14.6L813.57 21.77Z" />
		</g>
	</g>
</svg>